HIERARCHY
ROOT root
{
	OFFSET	0	13.1	24.9
	CHANNELS 6  Xposition Yposition Zposition Xrotation Yrotation Zrotation
	JOINT spine_1
	{
		OFFSET	0	9.99999	0
		CHANNELS 3  Xrotation Yrotation Zrotation
		JOINT spine_2
		{
			OFFSET	0	112	-10
			CHANNELS 3  Xrotation Yrotation Zrotation
			JOINT spine_3
			{
				OFFSET	0	206.5	19.3
				CHANNELS 3  Xrotation Yrotation Zrotation
				JOINT spine_4
				{
					OFFSET	0	110.4	14.6
					CHANNELS 3  Xrotation Yrotation Zrotation
					JOINT neck_1
					{
						OFFSET	0	71.8	-50.3
						CHANNELS 3  Xrotation Yrotation Zrotation
						JOINT neck_2
						{
							OFFSET	0	86.2	-25.8
							CHANNELS 3  Xrotation Yrotation Zrotation
							JOINT head_ee
							{
								OFFSET	0	179.8	-8.7
								CHANNELS 3  Xrotation Yrotation Zrotation
								End Site
								{
									OFFSET	1	0	0
								}
							}
						}
					}
					JOINT left_clavicle
					{
						OFFSET	-43.2	22.4	-70.8
						CHANNELS 3  Xrotation Yrotation Zrotation
						JOINT left_shoulder
						{
							OFFSET	-93.9	-5.79999	48.7
							CHANNELS 3  Xrotation Yrotation Zrotation
							JOINT left_elbow
							{
								OFFSET	-291.4	-30.8	15.2
								CHANNELS 3  Xrotation Yrotation Zrotation
								JOINT left_lowarm_twist
								{
									OFFSET	-110.7	-3.89999	13.6
									CHANNELS 3  Xrotation Yrotation Zrotation
									JOINT left_hand
									{
										OFFSET	-110.7	-3.89999	13.6
										CHANNELS 3  Xrotation Yrotation Zrotation
										JOINT left_ee
										{
											OFFSET	-80.8	-5.10001	12.1
											CHANNELS 3  Xrotation Yrotation Zrotation
											End Site
											{
												OFFSET	1	0	0
											}
										}
									}
								}
							}
						}
					}
					JOINT right_clavicle
					{
						OFFSET	43.2	22.4	-70.8
						CHANNELS 3  Xrotation Yrotation Zrotation
						JOINT right_shoulder
						{
							OFFSET	93.9	-5.79999	48.7
							CHANNELS 3  Xrotation Yrotation Zrotation
							JOINT right_elbow
							{
								OFFSET	291.4	-30.8	15.2
								CHANNELS 3  Xrotation Yrotation Zrotation
								JOINT right_lowarm_twist
								{
									OFFSET	110.7	-3.89999	13.6
									CHANNELS 3  Xrotation Yrotation Zrotation
									JOINT right_hand
									{
										OFFSET	110.7	-3.89999	13.6
										CHANNELS 3  Xrotation Yrotation Zrotation
										JOINT right_ee
										{
											OFFSET	80.8	-5.10001	12.1
											CHANNELS 3  Xrotation Yrotation Zrotation
											End Site
											{
												OFFSET	1	0	0
											}
										}
									}
								}
							}
						}
					}
				}
			}
		}
	}
	JOINT left_hip
	{
		OFFSET	-82.8	-127.5	0.300001
		CHANNELS 3  Xrotation Yrotation Zrotation
		JOINT left_knee
		{
			OFFSET	-28.2	-396.7	2.2
			CHANNELS 3  Xrotation Yrotation Zrotation
			JOINT left_ankle
			{
				OFFSET	-11.7	-411.3	35.4
				CHANNELS 3  Xrotation Yrotation Zrotation
				JOINT left_toes
				{
					OFFSET	0	-60	-88.6
					CHANNELS 3  Xrotation Yrotation Zrotation
					JOINT left_foot_ee
					{
						OFFSET	-22.5	-16.5	-42.2
						CHANNELS 3  Xrotation Yrotation Zrotation
						End Site
						{
							OFFSET	1	0	0
						}
					}
				}
			}
		}
	}
	JOINT right_hip
	{
		OFFSET	82.8	-127.5	0.300001
		CHANNELS 3  Xrotation Yrotation Zrotation
		JOINT right_knee
		{
			OFFSET	28.2	-396.7	2.2
			CHANNELS 3  Xrotation Yrotation Zrotation
			JOINT right_ankle
			{
				OFFSET	11.7	-411.3	35.4
				CHANNELS 3  Xrotation Yrotation Zrotation
				JOINT right_toes
				{
					OFFSET	0	-60	-88.6
					CHANNELS 3  Xrotation Yrotation Zrotation
					JOINT right_foot_ee
					{
						OFFSET	22.5	-16.5	-42.2
						CHANNELS 3  Xrotation Yrotation Zrotation
						End Site
						{
							OFFSET	1	0	0
						}
					}
				}
			}
		}
	}
}
MOTION
Frames: 14
Frame Time: 0.02
1041.4 574.639 -1682.42 -18.4177220302 46.489066552 9.64584112773 7.40504 0.323562 1.84789 7.40692 0.205341 1.86472 7.41069 0.0511937 1.87529 7.40595 0.346667 1.84369 -15.8785 0.136273 -4.55345 -15.8286 2.89995 -4.23923 -0.0 0.0 -0.0 -6.41842 23.0437 -6.27681 -25.4785 -22.2494 67.4182 0.685384 -18.7534 0.113179 -9.93572 -0.454107 1.18475 3.84082 10.1669 30.3523 -0.0 0.0 -0.0 10.743 -1.96899 -21.0665 -21.1939 40.1797 -48.5211 0.938212 24.9269 -0.207373 -6.01944 0.250577 -0.727189 -4.10887 5.64587 31.688 0.0 0.0 0.0 32.2188 0.454899 -0.161961 6.08769 -0.298114 -0.885899 1.80616 11.8752 -0.263642 2.2388 -0.0 -0.0 -0.0 0.0 -0.0 8.87107 -4.92218 4.26859 -7.53509 -0.236115 -1.13148 36.4754 1.82574 4.57549 -15.773 0.0 0.0 0.0 0.0 0.0 
1041.4 574.639 -1682.42 -18.7030721819 47.2846900481 10.0367185238 7.40504 0.323562 1.84789 7.40692 0.205341 1.86472 7.41069 0.0511937 1.87529 7.40595 0.346667 1.84369 -15.8785 0.136273 -4.55345 -15.8286 2.89995 -4.23923 -0.0 0.0 -0.0 -6.41842 23.0437 -6.27681 -25.4785 -22.2494 67.4182 0.685384 -18.7534 0.113179 -9.93572 -0.454107 1.18475 3.84082 10.1669 30.3523 -0.0 0.0 -0.0 10.743 -1.96899 -21.0665 -21.1939 40.1797 -48.5211 0.938212 24.9269 -0.207373 -6.01944 0.250577 -0.727189 -4.10887 5.64587 31.688 0.0 0.0 0.0 32.2188 0.454899 -0.161961 6.08769 -0.298114 -0.885899 1.80616 11.8752 -0.263642 2.2388 -0.0 -0.0 -0.0 0.0 -0.0 8.87107 -4.92218 4.26859 -7.53509 -0.236115 -1.13148 36.4754 1.82574 4.57549 -15.773 0.0 0.0 0.0 0.0 0.0 
1041.4 574.639 -1682.42 -19.0839177002 48.2940431414 10.550880688 7.40504 0.323562 1.84789 7.40692 0.205341 1.86472 7.41069 0.0511937 1.87529 7.40595 0.346667 1.84369 -15.8785 0.136273 -4.55345 -15.8286 2.89995 -4.23923 -0.0 0.0 -0.0 -6.41842 23.0437 -6.27681 -25.4785 -22.2494 67.4182 0.685384 -18.7534 0.113179 -9.93572 -0.454107 1.18475 3.84082 10.1669 30.3523 -0.0 0.0 -0.0 10.743 -1.96899 -21.0665 -21.1939 40.1797 -48.5211 0.938212 24.9269 -0.207373 -6.01944 0.250577 -0.727189 -4.10887 5.64587 31.688 0.0 0.0 0.0 32.2188 0.454899 -0.161961 6.08769 -0.298114 -0.885899 1.80616 11.8752 -0.263642 2.2388 -0.0 -0.0 -0.0 0.0 -0.0 8.87107 -4.92218 4.26859 -7.53509 -0.236115 -1.13148 36.4754 1.82574 4.57549 -15.773 0.0 0.0 0.0 0.0 0.0 
1041.4 574.639 -1682.42 -19.36077004 48.9929827803 10.9197082225 7.40504 0.323562 1.84789 7.40692 0.205341 1.86472 7.41069 0.0511937 1.87529 7.40595 0.346667 1.84369 -15.8785 0.136273 -4.55345 -15.8286 2.89995 -4.23923 -0.0 0.0 -0.0 -6.41842 23.0437 -6.27681 -25.4785 -22.2494 67.4182 0.685384 -18.7534 0.113179 -9.93572 -0.454107 1.18475 3.84082 10.1669 30.3523 -0.0 0.0 -0.0 10.743 -1.96899 -21.0665 -21.1939 40.1797 -48.5211 0.938212 24.9269 -0.207373 -6.01944 0.250577 -0.727189 -4.10887 5.64587 31.688 0.0 0.0 0.0 32.2188 0.454899 -0.161961 6.08769 -0.298114 -0.885899 1.80616 11.8752 -0.263642 2.2388 -0.0 -0.0 -0.0 0.0 -0.0 8.87107 -4.92218 4.26859 -7.53509 -0.236115 -1.13148 36.4754 1.82574 4.57549 -15.773 0.0 0.0 0.0 0.0 0.0 
1041.4 574.639 -1682.42 -19.7347673054 49.8943999319 11.4119440718 7.40504 0.323562 1.84789 7.40692 0.205341 1.86472 7.41069 0.0511937 1.87529 7.40595 0.346667 1.84369 -15.8785 0.136273 -4.55345 -15.8286 2.89995 -4.23923 -0.0 0.0 -0.0 -6.41842 23.0437 -6.27681 -25.4785 -22.2494 67.4182 0.685384 -18.7534 0.113179 -9.93572 -0.454107 1.18475 3.84082 10.1669 30.3523 -0.0 0.0 -0.0 10.743 -1.96899 -21.0665 -21.1939 40.1797 -48.5211 0.938212 24.9269 -0.207373 -6.01944 0.250577 -0.727189 -4.10887 5.64587 31.688 0.0 0.0 0.0 32.2188 0.454899 -0.161961 6.08769 -0.298114 -0.885899 1.80616 11.8752 -0.263642 2.2388 -0.0 -0.0 -0.0 0.0 -0.0 8.87107 -4.92218 4.26859 -7.53509 -0.236115 -1.13148 36.4754 1.82574 4.57549 -15.773 0.0 0.0 0.0 0.0 0.0 
1041.4 574.639 -1682.42 -19.9972181034 50.4996389368 11.7535603976 7.40504 0.323562 1.84789 7.40692 0.205341 1.86472 7.41069 0.0511937 1.87529 7.40595 0.346667 1.84369 -15.8785 0.136273 -4.55345 -15.8286 2.89995 -4.23923 -0.0 0.0 -0.0 -6.41842 23.0437 -6.27681 -25.4785 -22.2494 67.4182 0.685384 -18.7534 0.113179 -9.93572 -0.454107 1.18475 3.84082 10.1669 30.3523 -0.0 0.0 -0.0 10.743 -1.96899 -21.0665 -21.1939 40.1797 -48.5211 0.938212 24.9269 -0.207373 -6.01944 0.250577 -0.727189 -4.10887 5.64587 31.688 0.0 0.0 0.0 32.2188 0.454899 -0.161961 6.08769 -0.298114 -0.885899 1.80616 11.8752 -0.263642 2.2388 -0.0 -0.0 -0.0 0.0 -0.0 8.87107 -4.92218 4.26859 -7.53509 -0.236115 -1.13148 36.4754 1.82574 4.57549 -15.773 0.0 0.0 0.0 0.0 0.0 
1041.4 574.639 -1682.42 -20.4466135386 51.4877626027 12.3318523182 7.40504 0.323562 1.84789 7.40692 0.205341 1.86472 7.41069 0.0511937 1.87529 7.40595 0.346667 1.84369 -15.8785 0.136273 -4.55345 -15.8286 2.89995 -4.23923 -0.0 0.0 -0.0 -6.41842 23.0437 -6.27681 -25.4785 -22.2494 67.4182 0.685384 -18.7534 0.113179 -9.93572 -0.454107 1.18475 3.84082 10.1669 30.3523 -0.0 0.0 -0.0 10.743 -1.96899 -21.0665 -21.1939 40.1797 -48.5211 0.938212 24.9269 -0.207373 -6.01944 0.250577 -0.727189 -4.10887 5.64587 31.688 0.0 0.0 0.0 32.2188 0.454899 -0.161961 6.08769 -0.298114 -0.885899 1.80616 11.8752 -0.263642 2.2388 -0.0 -0.0 -0.0 0.0 -0.0 8.87107 -4.92218 4.26859 -7.53509 -0.236115 -1.13148 36.4754 1.82574 4.57549 -15.773 0.0 0.0 0.0 0.0 0.0 
1026.28719526 573.636 -1684.76370066 -21.4324945427 53.7946236157 14.2228690202 7.28683 0.237403 1.83603 7.2887 0.120111 1.84741 7.28978 -0.0362757 1.85096 7.28509 0.256454 1.83347 -13.0613 -1.07549 -4.42499 -13.0064 0.728071 -4.54547 -0.0 0.0 -0.0 -6.67083 22.2655 -6.8789 -23.3875 -23.2343 69.1078 0.691133 -18.8996 0.115035 -10.5008 -0.486047 1.2496 3.55009 12.0259 28.7644 -0.0 0.0 -0.0 10.4688 -2.91579 -20.4349 -22.5734 39.6644 -47.7575 0.986639 26.0466 -0.228212 -4.71686 0.189885 -0.572091 -3.82234 5.97378 29.6106 0.0 0.0 0.0 31.2938 0.516395 -0.002692 5.60093 -0.270822 -0.816256 2.18913 11.3079 -0.319051 3.91914 -0.0 -0.0 -0.0 0.0 -0.0 8.66699 -3.64395 4.19819 -9.58765 -0.27446 -1.44409 39.0604 3.69702 4.83169 -14.8828 0.0 0.0 0.0 0.0 0.0 
1006.24382964 579.459 -1683.10460631 -21.4376863521 54.4204560807 14.3663361821 7.0879 0.306623 1.81503 7.08971 0.190527 1.83086 7.09316 0.0290049 1.84051 7.08857 0.319267 1.81285 -12.5125 -1.8893 -5.13183 -12.4383 -0.32394 -5.46106 -0.0 0.0 -0.0 -7.06219 22.8254 -7.26776 -21.7289 -24.5531 70.2418 0.702628 -19.1911 0.118786 -10.6853 -0.496612 1.2707 3.26985 13.4649 27.1619 -0.0 0.0 -0.0 10.3173 -4.14908 -20.0331 -23.6184 39.0845 -47.4004 0.966149 25.5754 -0.219291 -5.00111 0.202827 -0.606052 -3.35229 7.08502 26.5652 0.0 0.0 0.0 28.9009 0.472556 1.00135 3.13832 -0.1419 -0.460577 -4.01434 11.1649 0.593212 3.9084 -0.0 -0.0 -0.0 0.0 -0.0 8.86907 -2.93947 4.4104 -10.6901 -0.290425 -1.6125 35.9274 -0.947682 4.50146 -14.6045 0.0 0.0 0.0 0.0 0.0 
944.080183237 595.396 -1685.41141526 -17.6834199167 56.7804947474 11.5847686136 6.39989 0.411038 1.48248 6.40105 0.315882 1.50562 6.40784 0.164196 1.52961 6.4048 0.403681 1.4845 -12.3382 -3.14956 -2.42869 -12.3329 -4.42811 -3.22982 -0.0 0.0 -0.0 -8.06654 24.0451 -8.28791 -18.6171 -28.4877 71.3127 0.831944 -22.3974 0.164712 -10.1235 -0.46465 1.20633 2.55779 14.8306 22.5992 -0.0 0.0 -0.0 10.4445 -5.32486 -20.1864 -28.1839 36.7004 -47.8473 0.841861 22.6376 -0.16851 -5.24236 0.213944 -0.634825 -2.25883 6.54791 18.3288 0.0 0.0 0.0 25.4558 0.122774 1.63535 -4.09675 0.146864 0.611441 -2.17285 10.0505 0.319663 9.42435 -0.0 -0.0 -0.0 0.0 -0.0 4.89494 -2.67294 5.01344 -9.90054 -0.279321 -1.49186 34.6904 -10.492 4.38407 -12.766 0.0 0.0 0.0 0.0 0.0 
944.034408332 595.396 -1682.2280125 -18.6054074127 58.5609827488 12.6757513759 6.39989 0.411038 1.48248 6.40105 0.315882 1.50562 6.40784 0.164196 1.52961 6.4048 0.403681 1.4845 -12.3382 -3.14956 -2.42869 -12.3329 -4.42811 -3.22982 -0.0 0.0 -0.0 -8.06654 24.0451 -8.28791 -18.6171 -28.4877 71.3127 0.831944 -22.3974 0.164712 -10.1235 -0.46465 1.20633 2.55779 14.8306 22.5992 -0.0 0.0 -0.0 10.4445 -5.32486 -20.1864 -28.1839 36.7004 -47.8473 0.841861 22.6376 -0.16851 -5.24236 0.213944 -0.634825 -2.25883 6.54791 18.3288 0.0 0.0 0.0 25.4558 0.122774 1.63535 -4.09675 0.146864 0.611441 -2.17285 10.0505 0.319663 9.42435 -0.0 -0.0 -0.0 0.0 -0.0 4.89494 -2.67294 5.01344 -9.90054 -0.279321 -1.49186 34.6904 -10.492 4.38407 -12.766 0.0 0.0 0.0 0.0 0.0 
944.120292345 595.396 -1678.32686202 -19.8984974909 60.7291112189 14.1739817324 6.39989 0.411038 1.48248 6.40105 0.315882 1.50562 6.40784 0.164196 1.52961 6.4048 0.403681 1.4845 -12.3382 -3.14956 -2.42869 -12.3329 -4.42811 -3.22982 -0.0 0.0 -0.0 -8.06654 24.0451 -8.28791 -18.6171 -28.4877 71.3127 0.831944 -22.3974 0.164712 -10.1235 -0.46465 1.20633 2.55779 14.8306 22.5992 -0.0 0.0 -0.0 10.4445 -5.32486 -20.1864 -28.1839 36.7004 -47.8473 0.841861 22.6376 -0.16851 -5.24236 0.213944 -0.634825 -2.25883 6.54791 18.3288 0.0 0.0 0.0 25.4558 0.122774 1.63535 -4.09675 0.146864 0.611441 -2.17285 10.0505 0.319663 9.42435 -0.0 -0.0 -0.0 0.0 -0.0 4.89494 -2.67294 5.01344 -9.90054 -0.279321 -1.49186 34.6904 -10.492 4.38407 -12.766 0.0 0.0 0.0 0.0 0.0 
944.362843914 595.396 -1674.42715078 -21.4117554994 62.8809393779 15.890637705 6.39989 0.411038 1.48248 6.40105 0.315882 1.50562 6.40784 0.164196 1.52961 6.4048 0.403681 1.4845 -12.3382 -3.14956 -2.42869 -12.3329 -4.42811 -3.22982 -0.0 0.0 -0.0 -8.06654 24.0451 -8.28791 -18.6171 -28.4877 71.3127 0.831944 -22.3974 0.164712 -10.1235 -0.46465 1.20633 2.55779 14.8306 22.5992 -0.0 0.0 -0.0 10.4445 -5.32486 -20.1864 -28.1839 36.7004 -47.8473 0.841861 22.6376 -0.16851 -5.24236 0.213944 -0.634825 -2.25883 6.54791 18.3288 0.0 0.0 0.0 25.4558 0.122774 1.63535 -4.09675 0.146864 0.611441 -2.17285 10.0505 0.319663 9.42435 -0.0 -0.0 -0.0 0.0 -0.0 4.89494 -2.67294 5.01344 -9.90054 -0.279321 -1.49186 34.6904 -10.492 4.38407 -12.766 0.0 0.0 0.0 0.0 0.0 
944.747818955 595.396 -1670.65347123 -23.1404264369 64.9469319727 17.815024885 6.39989 0.411038 1.48248 6.40105 0.315882 1.50562 6.40784 0.164196 1.52961 6.4048 0.403681 1.4845 -12.3382 -3.14956 -2.42869 -12.3329 -4.42811 -3.22982 -0.0 0.0 -0.0 -8.06654 24.0451 -8.28791 -18.6171 -28.4877 71.3127 0.831944 -22.3974 0.164712 -10.1235 -0.46465 1.20633 2.55779 14.8306 22.5992 -0.0 0.0 -0.0 10.4445 -5.32486 -20.1864 -28.1839 36.7004 -47.8473 0.841861 22.6376 -0.16851 -5.24236 0.213944 -0.634825 -2.25883 6.54791 18.3288 0.0 0.0 0.0 25.4558 0.122774 1.63535 -4.09675 0.146864 0.611441 -2.17285 10.0505 0.319663 9.42435 -0.0 -0.0 -0.0 0.0 -0.0 4.89494 -2.67294 5.01344 -9.90054 -0.279321 -1.49186 34.6904 -10.492 4.38407 -12.766 0.0 0.0 0.0 0.0 0.0 
